<svg xmlns="http://www.w3.org/2000/svg" viewBox="0 0 64 64"><circle cx="32" cy="32" r="32" fill="#14161A"/><g transform="translate(32 32) scale(0.84) translate(-32 -32)"><circle cx="20" cy="33.3" r="12" fill="#EEEEEC"/><line x1="36.3" y1="40.9" x2="35.8" y2="19.1" stroke="#14161A" stroke-width="8" stroke-linecap="round"/><line x1="35.8" y1="19.1" x2="49.2" y2="28" stroke="#14161A" stroke-width="8" stroke-linecap="round"/><line x1="49.2" y1="28" x2="36.3" y2="40.9" stroke="#14161A" stroke-width="8" stroke-linecap="round"/><line x1="35.8" y1="19.1" x2="27.8" y2="35.1" stroke="#14161A" stroke-width="8" stroke-linecap="round"/><line x1="27.8" y1="35.1" x2="13.5" y2="19.1" stroke="#14161A" stroke-width="8" stroke-linecap="round"/><circle cx="36.3" cy="40.9" r="5.8" fill="#14161A"/><circle cx="35.8" cy="19.1" r="5.8" fill="#14161A"/><circle cx="49.2" cy="28" r="5.8" fill="#14161A"/><circle cx="27.8" cy="35.1" r="5.8" fill="#14161A"/><circle cx="13.5" cy="19.1" r="6" fill="#14161A"/><rect x="28.3" y="39.9" width="17.4" height="8.5" rx="1.5" fill="#14161A"/><path d="M21 54.6 Q21.6 45.4 27.6 45.4 H45.9 Q51.9 45.4 52.5 54.6 Z" fill="#14161A"/><path d="M22.6 53 Q23.2 47 28 47 H45.5 Q50.3 47 50.9 53 Z" fill="#EEEEEC"/><rect x="29.8" y="41.4" width="14.4" height="5.6" rx="0.8" fill="#EEEEEC"/><line x1="36.3" y1="40.9" x2="35.8" y2="19.1" stroke="#EEEEEC" stroke-width="4.8" stroke-linecap="round"/><line x1="35.8" y1="19.1" x2="49.2" y2="28" stroke="#EEEEEC" stroke-width="4.8" stroke-linecap="round"/><line x1="49.2" y1="28" x2="36.3" y2="40.9" stroke="#EEEEEC" stroke-width="4.8" stroke-linecap="round"/><line x1="35.8" y1="19.1" x2="27.8" y2="35.1" stroke="#EEEEEC" stroke-width="4.8" stroke-linecap="round"/><line x1="27.8" y1="35.1" x2="13.5" y2="19.1" stroke="#EEEEEC" stroke-width="4.8" stroke-linecap="round"/><line x1="36.3" y1="40.9" x2="35.8" y2="19.1" stroke="#14161A" stroke-width="1.1" stroke-linecap="round"/><line x1="35.8" y1="19.1" x2="49.2" y2="28" stroke="#14161A" stroke-width="1.1" stroke-linecap="round"/><line x1="49.2" y1="28" x2="36.3" y2="40.9" stroke="#14161A" stroke-width="1.1" stroke-linecap="round"/><line x1="35.8" y1="19.1" x2="27.8" y2="35.1" stroke="#14161A" stroke-width="1.1" stroke-linecap="round"/><line x1="27.8" y1="35.1" x2="13.5" y2="19.1" stroke="#14161A" stroke-width="1.1" stroke-linecap="round"/><circle cx="13.5" cy="19.1" r="4.6" fill="#EEEEEC"/><g transform="translate(13.5 19.1) rotate(-131.8)"><rect x="1" y="-1.5" width="4.4" height="3" fill="#14161A"/></g><circle cx="36.3" cy="40.9" r="4.4" fill="#EEEEEC"/><circle cx="36.3" cy="40.9" r="2.8" fill="none" stroke="#14161A" stroke-width="1.3"/><circle cx="35.8" cy="19.1" r="4.4" fill="#EEEEEC"/><circle cx="35.8" cy="19.1" r="2.8" fill="none" stroke="#14161A" stroke-width="1.3"/><circle cx="49.2" cy="28" r="4.4" fill="#EEEEEC"/><circle cx="49.2" cy="28" r="2.8" fill="none" stroke="#14161A" stroke-width="1.3"/><circle cx="27.8" cy="35.1" r="4.4" fill="#EEEEEC"/><circle cx="27.8" cy="35.1" r="2.8" fill="none" stroke="#14161A" stroke-width="1.3"/></g></svg>
